<svg xmlns="http://www.w3.org/2000/svg" xmlns:xlink="http://www.w3.org/1999/xlink" viewBox="0 0 3882.25 1162.59"><defs><style>.fulgurancelogowhite{fill:url(#fulgurancelogowhitedegrade);}</style><linearGradient id="fulgurancelogowhitedegrade" x1="-266.21" y1="3097.26" x2="381.81" y2="3545.27" gradientTransform="translate(0 -2993.78)" gradientUnits="userSpaceOnUse"><stop offset="0.37" stop-color="#f01420"/><stop offset="1" stop-color="#bf2136"/></linearGradient></defs><polygon fill="#ffffff" points="3882.25 499.63 3882.25 412.39 3610.85 412.39 3610.85 769.94 3882.25 769.94 3882.25 682.71 3708.86 682.71 3708.86 631.55 3843.47 631.55 3843.47 551.86 3708.86 551.86 3708.86 499.63 3882.25 499.63"/><path fill="#ffffff" d="M3252.76,591.17c0,107.69,77.54,184.16,192.24,184.16,49.54,0,77.54-7,106.08-23.7V645.55h-4.31c-21,27.47-54.92,42.54-96.92,42.54-59.24,0-98-38.23-98-96.92s38.77-96.93,98-96.93c42,0,75.92,15.08,96.92,42.54h4.31V430.7C3522.54,414,3494.54,407,3445,407,3330.3,407,3252.76,483.47,3252.76,591.17Z"/><polygon fill="#ffffff" points="3107.38 616.48 3106.3 616.48 3002.91 412.39 2873.68 412.39 2873.68 769.94 2968.45 769.94 2968.45 534.09 2969.53 534.09 3089.07 769.94 3202.15 769.94 3202.15 412.39 3107.38 412.39 3107.38 616.48"/><path fill="#ffffff" d="M2590.44,412.39,2444,769.94h102.32l18.84-51.15h143.24l18.85,51.15h105L2685.75,412.39Zm5.39,224.55,40.38-111.47h1.08l40.38,111.47Z"/><path fill="#ffffff" d="M2413.28,533c0-79.69-47.38-120.62-139.46-120.62H2110.66V769.94h98V653.63h36.08l64.62,116.31h114.69l-80.23-127.08C2389.59,626.17,2413.28,589,2413.28,533ZM2269.51,566.4h-60.85V499.63h60.85c31.23,0,44.69,10.23,44.69,33.38S2300.74,566.4,2269.51,566.4Z"/><path fill="#ffffff" d="M1952.35,609.48c0,52.77-19.92,78.61-60.85,78.61s-60.85-25.84-60.85-78.61V412.39h-98V616.48c0,106.62,51.16,158.85,156.16,158.85,106.08,0,158.31-52.23,158.31-158.85V412.39h-94.77Z"/><path fill="#ffffff" d="M1343.87,591.17c0,113.08,78.08,184.16,201.93,184.16,52.23,0,91-7,124.39-23.7V561H1513v79.7h63v45.77a207.76,207.76,0,0,1-25.85,1.61c-65.7,0-107.16-37.15-107.16-96.92s41.46-96.93,107.16-96.93c45.77,0,85.62,14,115.77,42.54h4.31V430.7C1636.8,414,1598,407,1545.8,407,1422,407,1343.87,478.09,1343.87,591.17Z"/><polygon fill="#ffffff" points="1154.33 412.39 1056.33 412.39 1056.33 769.94 1320.18 769.94 1320.18 682.71 1154.33 682.71 1154.33 412.39"/><path fill="#ffffff" d="M898,609.48c0,52.77-19.92,78.61-60.85,78.61s-60.85-25.84-60.85-78.61V412.39h-98V616.48c0,106.62,51.16,158.85,156.16,158.85,106.08,0,158.31-52.23,158.31-158.85V412.39H898Z"/><path class="fulgurancelogowhite" d="M155.84,0H830.72c26,0,41.14,29.72,25.71,50.57l-142,193.72a31.54,31.54,0,0,1-25.72,13.15H420.13a31.49,31.49,0,0,0-30.57,23.43l-25.14,90.86a31.76,31.76,0,0,0,22.09,39.11A31.38,31.38,0,0,0,395,412H512.71c26.28,0,41.14,30,25.43,50.86L17.55,1159.47c-5.15,6.85-15.72,1.42-13.43-6.58l131.43-460.3A31.88,31.88,0,0,0,105,652H31.83A31.69,31.69,0,0,1,.69,613.73l124-588.59A31.55,31.55,0,0,1,155.84,0Z"/></svg>